<?xml version="1.0" encoding="utf-8"?>
<!-- Generator: Adobe Illustrator 22.0.1, SVG Export Plug-In . SVG Version: 6.00 Build 0)  -->
<svg version="1.1" id="Layer_1" xmlns="http://www.w3.org/2000/svg" xmlns:xlink="http://www.w3.org/1999/xlink" x="0px" y="0px"
	 viewBox="0 0 422.9 211.3" style="enable-background:new 0 0 422.9 211.3;" xml:space="preserve">
<style type="text/css">
	.st0{fill:#F7F7F7;}
	.st1{opacity:0.6;enable-background:new    ;}
</style>
<g>
	<g>
		<g>
			<g>
				<g>
					<g>
						<path class="st0" d="M8.4,151.5l102.6-63L78.6,150l-0.3,0L8.4,151.5z M108.4,91.3L12,150.5l66-1.5L108.4,91.3z"/>
					</g>
					<g class="st1">
						<path class="st0" d="M62.8,150.3l46.5-60.7l0.8,0.5L78.6,150L62.8,150.3z M106.5,94.9l-41.7,54.4L78,149L106.5,94.9z"/>
					</g>
					<g>
						<path class="st0" d="M67.1,169.6L109.6,89l17.4,23.6l90,30.8l-17.3,23.3l-0.2,0l-46.8,1v-0.1L67.1,169.6z M109.8,90.8
							l-41,77.7l85-2v0.1l45.5-1l16.1-21.9l-89-30.4L109.8,90.8z"/>
					</g>
					<g class="st1">
						<path class="st0" d="M68.2,169.5l-0.7-0.7l51.9-66.6l7.9,10.9l-0.3,0.3L68.2,169.5z M119.4,103.8l-46.9,60.2l53.6-51.1
							L119.4,103.8z"/>
					</g>
				</g>
			</g>
		</g>
	</g>
	<g>
		<g>
			<g>
				<g>
					<g>
						<path class="st0" d="M418.4,177.6l-108.1-2.4l-0.1-0.3l-49.8-94.4L418.4,177.6z M310.9,174.2l103.9,2.4L263,83.3L310.9,174.2z
							"/>
					</g>
					<g class="st1">
						<path class="st0" d="M334.2,175.7l-23.9-0.5l-0.1-0.3l-48.9-92.8l0.8-0.5L334.2,175.7z M310.9,174.2l21.3,0.5l-67.3-87.8
							L310.9,174.2z"/>
					</g>
					<g>
						<path class="st0" d="M327.5,205.7l-41.9-1.2l-86.9-38.2l0.4-0.5L261.8,81L327.5,205.7z M285.9,203.6l39.9,1.1L261.6,82.8
							L200.3,166L285.9,203.6z"/>
					</g>
					<g class="st1">
						<path class="st0" d="M326.4,205.6l-91.8-87.7l12.1-16.4l80.5,103.4L326.4,205.6z M235.9,117.7l86.3,82.4l-75.5-97L235.9,117.7
							z"/>
					</g>
				</g>
			</g>
		</g>
	</g>
	<g>
		<g>
			<path class="st0" d="M195.3,164.9l-81.9-36.1l56.2-58.9L195.3,164.9z M115.1,128.4l78.7,34.7L169,71.9L115.1,128.4z"/>
		</g>
		<g>
			<path class="st0" d="M285.8,204.6H49.5l29.4-34.9l0.3,0l160.6,13.6l0.1,0l46.2,20.3L285.8,204.6z M51.7,203.6h231.7l-43.9-19.3
				L79.3,170.7L51.7,203.6z"/>
		</g>
		<g>
			<path class="st0" d="M239.6,184.3L78.1,170.6l36-42.6l125.7,55.4L239.6,184.3z M80.1,169.8L236.7,183l-122.3-53.8L80.1,169.8z"/>
		</g>
		<g>
			<path class="st0" d="M183.2,124.1l-14.6-53.8l43,3.8L183.2,124.1z M170,71.5l13.6,50L210,75L170,71.5z"/>
		</g>
	</g>
	<g>
		<g>
			<g>
				<path class="st0" d="M216.4,144.2l-30.6-10.5l-2.9-11l0.1-0.2l48.7-85.6l39.7,50.3l-0.7,0.7l-8.8-5.4L216.4,144.2z M186.6,132.9
					L216,143l45.6-61.8l7.2,4.4l-37-46.9l-47.8,84.2L186.6,132.9z"/>
			</g>
		</g>
		<g>
			<path class="st0" d="M302.8,107.7l-32.3-19.9L231,37.8l30.8-29.9L302.8,107.7z M271.2,87.1l29.5,18.1L261.4,9.6l-29,28.3
				L271.2,87.1z"/>
		</g>
		<g>
			<path class="st0" d="M77.9,75l-0.3-1L261.4,8.2l0.5,0.8l-30,29.2l-0.1,0L77.9,75z M259.6,9.9l-173.1,62l144.9-34.6L259.6,9.9z"/>
		</g>
		<g>
			<g>
				<path class="st0" d="M183.4,122.8L183.4,122.8L183.4,122.8z"/>
			</g>
			<g>
				<path class="st0" d="M128.6,114.2l-2.3-0.8l-16.8-22.9l-18.9,11.5l-13.6-28L232.7,37l-21.6,38.1l-41.6-3.7L128.6,114.2z
					 M127,112.6l1.3,0.4l40.7-42.6l41.4,3.7l20.2-35.5L78.5,74.8l12.6,25.8l18.7-11.5L127,112.6z"/>
			</g>
		</g>
	</g>
</g>
</svg>
